# xmcd
#
# Track frame offsets:
#	150
#	16633
#	33173
#	49376
#	69305
#	87655
#	105096
#	117592
#	132774
#	151499
#	164236
#	180280
#	201377
#	228052
#	244606
#
# Disc length: 3475 seconds
#
# Revision: 2
# Processed by: cddbd v1.5.2PL0 Copyright (c) Steve Scherf et al.
# Submitted via: audiograbber 1.83.01
#
DISCID=bc0d910f
DTITLE=Various Artist - American Heartland
DYEAR=2013
DGENRE=Country
TTITLE0=Train - Hey, Soul Sister
TTITLE1=Gavin Degraw - I Don't Want To Be
TTITLE2=Luke Bryan - Drunk On You
TTITLE3=Eric Church - Springsteen
TTITLE4=Mary Chapin Carpenter - He Thinks He'll Keep Her
TTITLE5=Alan Jackson and Jimmy Buffett - It's Five O'clock Somewhere
TTITLE6=Jave Everett - Bad Things
TTITLE7=Love nd Theft - Runnin' Out Of Air
TTITLE8=Scotty McCreery - I Love You This Big
TTITLE9=Tate Stevens - Holler If You're With Me
TTITLE10=Jake Owen - Alone With You
TTITLE11=Shanw Colvin - Never Saw Blue Like That
TTITLE12=Tedeshi Trucks Band - Midnight In Harlem
TTITLE13=Darius Rucker - It Won't Be Like This For Long
TTITLE14=Little Big Town - Pontoon
EXTD=
EXTT0=
EXTT1=
EXTT2=
EXTT3=
EXTT4=
EXTT5=
EXTT6=
EXTT7=
EXTT8=
EXTT9=
EXTT10=
EXTT11=
EXTT12=
EXTT13=
EXTT14=
PLAYORDER=
